<svg id="Layer_1" data-name="Layer 1" xmlns="http://www.w3.org/2000/svg" viewBox="0 0 528.92 422.26"><defs><style>.cls-1{fill:#c8d6ed;}.cls-2{fill:none;stroke:#727bba;stroke-miterlimit:10;}.cls-3{fill:#727bba;}.cls-4{fill:#fff;}</style></defs><path class="cls-1" d="M120.72,408s-27.65,46.56,116.41,42.93,306.3-8.73,306.3-8.73,75.66-101.13,0-148.43S430.66,286.5,410.28,124.26s-227-83.67-240.09-11.65S120.72,408,120.72,408Z" transform="translate(-55.54 -28.87)"/><path class="cls-2" d="M363.47,379.91s124-16.65,132.66-132" transform="translate(-55.54 -28.87)"/><path class="cls-3" d="M427.59,359.88s-30.09-17-25.3-62.3,68.55-10,27,61.32" transform="translate(-55.54 -28.87)"/><path class="cls-3" d="M476.65,308S442.91,296.68,455.78,253,490.83,265.76,476.65,308Z" transform="translate(-55.54 -28.87)"/><path class="cls-3" d="M493,256.31s-52-62.21-27.44-81.13S501.72,218.84,493,256.31Z" transform="translate(-55.54 -28.87)"/><path class="cls-3" d="M436.81,352.71s21.1,28.37,60,2.54S524.11,298.14,436.81,352.71Z" transform="translate(-55.54 -28.87)"/><path class="cls-3" d="M473.15,310.51s146.6-33.83,103.32-42.93S497.16,262.85,473.15,310.51Z" transform="translate(-55.54 -28.87)"/><path class="cls-3" d="M495.88,254.85s69.11-8,59.29-22.91S498.79,227.57,495.88,254.85Z" transform="translate(-55.54 -28.87)"/><path class="cls-2" d="M238.82,399.38S98.57,305.05,84.34,264.92" transform="translate(-55.54 -28.87)"/><ellipse class="cls-3" cx="16.73" cy="243.74" rx="16.73" ry="8.85"/><ellipse class="cls-3" cx="73.12" cy="250.11" rx="9.09" ry="19.89" transform="translate(-182.5 54.3) rotate(-33.86)"/><ellipse class="cls-3" cx="97.91" cy="259.37" rx="14.79" ry="9.58" transform="translate(-234.86 231.47) rotate(-69.52)"/><ellipse class="cls-3" cx="113.97" cy="286.53" rx="13.34" ry="9.09" transform="translate(-249.86 264.16) rotate(-69.52)"/><ellipse class="cls-3" cx="92.82" cy="299.05" rx="7.15" ry="18.1" transform="translate(-266.4 346.49) rotate(-86.86)"/><ellipse class="cls-3" cx="58.43" cy="293.72" rx="19.91" ry="5.5"/><ellipse class="cls-3" cx="139.29" cy="306.27" rx="18.31" ry="6.33" transform="translate(-251.13 244.89) rotate(-60)"/><ellipse class="cls-3" cx="161.97" cy="326.28" rx="14.3" ry="6.18" transform="translate(-257.12 274.54) rotate(-60)"/><ellipse class="cls-3" cx="139.29" cy="346.68" rx="18.61" ry="9.94" transform="translate(-125.41 8.23) rotate(-12.16)"/><ellipse class="cls-3" cx="162.18" cy="367.22" rx="20.25" ry="7.28" transform="translate(-194.2 72.55) rotate(-24.71)"/><ellipse class="cls-3" cx="139.24" cy="353.67" rx="19.04" ry="6.86"/><ellipse class="cls-3" cx="184.61" cy="343.38" rx="12.85" ry="7.4" transform="translate(-257.2 367.3) rotate(-69.52)"/><ellipse class="cls-3" cx="155.93" cy="332.72" rx="4.61" ry="14.09"/><path class="cls-4" d="M281.51,382.54s-32-71.3,10.18-73.49S301.88,376,301.88,376,283,453.11,323.71,424.73s96.76-105.49,90.21-197.89-28.88-123-66.1-106.22-32.12,31.28-130.34,8.73-7.27,232.81-7.27,232.81,35.07,68.75,61.84,64S281.51,382.54,281.51,382.54Z" transform="translate(-55.54 -28.87)"/></svg>