<svg id="Layer_1" data-name="Layer 1" xmlns="http://www.w3.org/2000/svg" viewBox="0 0 295.56 362.9"><defs><style>.cls-1{fill:#eeecf5;}.cls-2{fill:#d6d2e8;}.cls-3{fill:#1d1d1b;}.cls-4{fill:#ee8a9e;}.cls-5{fill:none;stroke:#1d1d1b;stroke-miterlimit:10;stroke-width:5px;}</style></defs><path class="cls-1" d="M196.52,91s13.56-19.5,46.63-23.32,47.9,0,47.9,0l25,5.09,75.45-6.78,33.84,14.59,22.17,23.41,12.67,33.21,1.69,36.46s-13.81,37.7-15.68,42.06-12.05,33.13-12.05,33.13l-4.73,40.62-9.93,61.74S416.6,380.25,403,399.44s-37.68,16.85-37.68,16.85-23.09-23.8-26.64-35.72-16.25-71-16.25-71l-15.69-1.17-1.14,37.49s-7.83,26.27-9.42,30.39-13.47,27.33-13.47,27.33l-19.56,15.16L236.67,404l-17.73-38.45L206,306.18s-3-52.16-3.36-54.24-19.4-42.41-19.4-42.41l-8.53-42.28,5.29-48.6Z" transform="translate(-172.22 -58.55)"/><path class="cls-2" d="M218,74.56s-2,123.93,81.06,159.82,131,15.53,131,15.53v34.25l-10.6,67-6.78,27.2L398,405.18l-20.12,10.14h-8.82l-22.46-21-13.15-33-9.38-38.57L320.3,308l-13.56.39-1.14,37.49-9.42,30.39-15.31,30.92-17.72,11.57L236.67,404,218,362.67l-12-56.49-3.36-54.24L183.8,211.76l-9.08-44.51,5.29-48.6S196.33,81,218,74.56Z" transform="translate(-172.22 -58.55)"/><path class="cls-3" d="M311.5,175.2s7.26,3.36,11.76,0l5.41-4s3.71-1.39,4.56,2.91-.53,6.21-.53,6.21-10.39,15.05-27.77,2.22c0,0-3.6-2.44-4.13-5.51s1.06-7.1,5.51-6Z" transform="translate(-172.22 -58.55)"/><ellipse class="cls-4" cx="88.36" cy="134.06" rx="19.71" ry="15.76"/><ellipse class="cls-4" cx="201.07" cy="134.06" rx="19.71" ry="15.76"/><path class="cls-5" d="M205.84,81.62S266,38,316.48,78.65c0,0,57.23-42.81,112.76,5.09,0,0,49.18,40.7,32.64,89.87s-26.7,64.86-26.7,64.86-8.91,97.07-22.47,139.89-39.85,39.42-39.85,39.42-26.7,3-39.42-56.38c0,0-6.36-53.83-13.14-53.41s-18.65.42-18.65.42h11.86s-26.28,170.84-82.66,87.75c0,0-27.13-54.26-26.7-123.35,0,0,0-17.81-3.4-30.53S176.17,219,174.9,158.35c0,0-3.4-38.58,19.5-67" transform="translate(-172.22 -58.55)"/><ellipse class="cls-3" cx="101.02" cy="114.53" rx="4.45" ry="10.49"/><ellipse class="cls-3" cx="189.62" cy="113.47" rx="4.45" ry="10.49"/></svg>