<svg id="Layer_1" data-name="Layer 1" xmlns="http://www.w3.org/2000/svg" viewBox="0 0 550.22 320.25"><defs><style>.cls-1{fill:#d8d2e8;}.cls-2{fill:#727bba;}.cls-3,.cls-4,.cls-8,.cls-9{fill:none;stroke-miterlimit:10;}.cls-3,.cls-4{stroke:#727bba;}.cls-3{stroke-width:0.75px;}.cls-5{fill:#e9a8b7;}.cls-6{fill:#fff;}.cls-7{fill:#ded8e3;}.cls-8,.cls-9{stroke:#ded8e3;}.cls-9{stroke-width:0.25px;}</style></defs><path class="cls-1" d="M83.7,400.12s-87.32-20.69,0-165.59c0,0-29.11-142.3,102.85-152.65S378,104.52,380,105.82s147.48,49.8,196,150.06-10.35,135.83-10.35,135.83Z" transform="translate(-44.89 -79.88)"/><path class="cls-2" d="M121.19,330s-19.46-9.38-17.84,5.18,34.77,14.6,34.77,14.6Z" transform="translate(-44.89 -79.88)"/><path class="cls-2" d="M109.66,301.72s-39.45-24.58-42.36-8.4,21.18,27.49,21.18,27.49,21.93,9.7,24.79-7.12S109.66,301.72,109.66,301.72Z" transform="translate(-44.89 -79.88)"/><path class="cls-2" d="M101.3,280.64S55.43,244.42,53.81,259s30.08,37.19,30.08,37.19,28.14,6.13,28.46,3.55S101.3,280.64,101.3,280.64Z" transform="translate(-44.89 -79.88)"/><path class="cls-2" d="M97.62,249.31s-36.28-36-42.38-29.31S66,249.31,66,249.31s23.8,18,29.9,11.9,4.64-5.8,4.64-5.8Z" transform="translate(-44.89 -79.88)"/><path class="cls-2" d="M87,226.62s-22.8-9.7-8.65-47.54S88.9,226.62,88.9,226.62Z" transform="translate(-44.89 -79.88)"/><path class="cls-2" d="M93.59,253.32s-5.1-42,27.69-51.75c0,0,6.61,30.73-11.19,51.75l-12.62,8.84-4.16-3.88Z" transform="translate(-44.89 -79.88)"/><path class="cls-2" d="M118.08,318.47s-.12-.56-.25-1.59c-.72-5.74-1.71-26.1,16.67-44.42,21.67-21.58,2.59,38.56,2.59,38.56S117,332.7,117.52,325.59Z" transform="translate(-44.89 -79.88)"/><path class="cls-3" d="M188.06,178.6s9.49-48.44,13.8-57.5" transform="translate(-44.89 -79.88)"/><path class="cls-2" d="M199.67,125.75S229,109.15,213,102,199.67,125.75,199.67,125.75Z" transform="translate(-44.89 -79.88)"/><path class="cls-4" d="M125.08,337.2s-39.67-90.93-42-120.93" transform="translate(-44.89 -79.88)"/><path class="cls-2" d="M107.73,290.72s-2-36.33,14.73-41.52S107.73,290.72,107.73,290.72Z" transform="translate(-44.89 -79.88)"/><path class="cls-5" d="M161.78,383.08c-1.73.43-37.52-2.16-39.24-52.61S158.76,271,158.76,271s24.15-7.76,141.87-8.19,157.83-14.23,162.14,31.91,16,114.27-133.25,95.73Z" transform="translate(-44.89 -79.88)"/><path class="cls-6" d="M359.71,192.84c-1.08.22-61.62-23.45-66,11.86s14.92,82.79,14.92,82.79,6.47,89.7,27.38,80.86,15.31-59.94,15.31-59.94,19.62-20.27,22.64-4.75,9.49,82.13,27.17,62.09,11.21-71.57,11.21-71.57,31.26-28.89,18.76-88.19S359.71,192.84,359.71,192.84Z" transform="translate(-44.89 -79.88)"/><path class="cls-6" d="M212.46,352s-3.89-45.06,11.64-53.25S242,309.27,242,309.27s-4.52,52.61,10.78,55.41,24.37.87,24.15-15.31,1.51-53.68,1.51-53.68,13.15-22.28,14.88-64.83-19.19-46.21-19.19-46.21-20.7-7.76-36.22,6.47-45.93-34.5-66-1.3,0,76.76,0,76.76,3,61.45,9.49,75.89S201.89,373.09,212.46,352Z" transform="translate(-44.89 -79.88)"/><rect class="cls-7" x="163.7" y="139.46" width="12.34" height="11.69"/><rect class="cls-7" x="188.69" y="140.13" width="11.43" height="10.35"/><rect class="cls-7" x="164.64" y="163.85" width="10.46" height="12.19"/><rect class="cls-7" x="189.44" y="165.63" width="9.92" height="10.9"/><rect class="cls-7" x="299.71" y="139.38" width="11.17" height="10.32"/><rect class="cls-7" x="298.86" y="166.87" width="10.4" height="10"/><rect class="cls-7" x="328.4" y="166.87" width="10.94" height="10.43"/><line class="cls-8" x1="106.54" y1="156.09" x2="406.24" y2="156.09"/><line class="cls-3" x1="141.64" y1="46.54" x2="152.09" y2="56.83"/><path class="cls-2" d="M173.92,117s18.65-13.69,16.92,7.55S173.92,117,173.92,117Z" transform="translate(-44.89 -79.88)"/><line class="cls-3" x1="154.06" y1="53.11" x2="169.94" y2="48.58"/><path class="cls-2" d="M212.42,126.88s2.45-9.95,16.92-8.4.77,11.24.77,11.24S215.26,139.15,212.42,126.88Z" transform="translate(-44.89 -79.88)"/><line class="cls-3" x1="148.6" y1="77.26" x2="164.5" y2="65.78"/><line class="cls-3" x1="137.54" y1="74.16" x2="145.73" y2="86.34"/><path class="cls-2" d="M203.61,150.49s7.76-25.87,18.71-12.42S203.61,150.49,203.61,150.49Z" transform="translate(-44.89 -79.88)"/><path class="cls-2" d="M183.92,160.05s-27.49,1.64-19.43-15.69S188.2,159,188.2,159l-4.4,1.46" transform="translate(-44.89 -79.88)"/><rect class="cls-7" x="328.41" y="139.38" width="10.93" height="11.05"/><polygon class="cls-9" points="169.29 169.94 195.42 169.94 195.42 144.05 166.96 144.05 166.96 169.94 169.29 169.94"/><polygon class="cls-9" points="307.71 171.19 333.85 171.19 333.85 145.31 305.38 145.31 305.38 171.19 307.71 171.19"/></svg>